<?xml version="1.0" encoding="utf-8"?>
<!-- Generator: Adobe Illustrator 22.1.0, SVG Export Plug-In . SVG Version: 6.00 Build 0)  -->
<svg version="1.1" id="Capa_1" xmlns="http://www.w3.org/2000/svg" xmlns:xlink="http://www.w3.org/1999/xlink" x="0px" y="0px"
	 viewBox="0 0 179.7 33.6" style="enable-background:new 0 0 179.7 33.6;" xml:space="preserve">
<style type="text/css">
	.st0{fill:#06255B;}
</style>
<path class="st0" d="M94.6,20.9c0-0.3,0.2-0.5,0.5-0.5l4.4,0c0.3,0,0.5,0.2,0.5,0.5l0,3.2c0,2.1,0.9,3,2.6,3c1.6,0,2.7-0.7,2.7-2.8
	v-1.4c0-1.3-0.4-2.3-1.8-3.3l-5.1-3.5c-2.7-1.9-3.7-3.5-3.7-7.1c0-4.7,2.4-7.3,8.2-7.3c3.9,0,7.6,1.7,7.6,6.9v2.3
	c0,0.3-0.2,0.5-0.5,0.5h-4.5c-0.3,0-0.5-0.2-0.5-0.5V9.3c0-1.4-0.3-2.6-2.4-2.6c-1.9,0-2.4,1.2-2.4,2.6c0,1.3,0.4,2.1,1.7,3l5.2,3.6
	c2.9,2.1,3.6,3.9,3.6,6.9v1.9c0,4.8-2.7,7.2-7.9,7.2c-5.3,0-8.2-2.3-8.2-6.7V20.9z M67.1,20.9c0-2-0.8-2.7-2.8-2.7h-2.5v8.5h2.5
	c1.9,0,2.8-1,2.8-2.7V20.9z M61.7,13.4h2.2c1.9,0,2.8-1,2.8-2.7V9.6c0-2-0.8-2.7-2.8-2.7h-2.2V13.4z M69,15.8
	c2.3,0.9,3.4,1.8,3.4,5.3v4.2c0,3.9-2.4,6.3-7.2,6.3h-8.4c-0.3,0-0.5-0.2-0.5-0.5V2.5c0-0.3,0.2-0.5,0.5-0.5H65c4.8,0,7,1.7,7,6v2.6
	c0,2.7-0.8,4-3,4.8V15.8 M85.2,21.9l-1.6-11.5h-0.3l-1.8,11.5H85.2z M91.9,30.9c0.1,0.4-0.2,0.6-0.4,0.6H87c-0.4,0-0.5-0.2-0.6-0.5
	l-0.6-4.3h-5l-0.7,4.3c0,0.3-0.2,0.5-0.6,0.5h-4.3c-0.3,0-0.5-0.2-0.4-0.6l5.2-28.4c0.1-0.3,0.3-0.5,0.7-0.5h5.6
	c0.4,0,0.6,0.2,0.7,0.5L91.9,30.9 M123.5,11.6c0,0.8-0.4,1.2-1.2,1.2h-1.1V9.1h1.1c0.4,0,0.7,0.1,0.9,0.3c0.2,0.2,0.3,0.5,0.3,0.9
	V11.6z M121.1,4.2h1c0.4,0,0.7,0.1,0.9,0.3c0.2,0.2,0.3,0.5,0.3,0.9v0.5c0,0.8-0.4,1.2-1.2,1.2h-1V4.2z M124.3,7.9
	c0.5-0.2,0.8-0.4,1-0.8c0.2-0.3,0.3-0.8,0.3-1.3V4.7c0-0.9-0.2-1.6-0.7-2c-0.5-0.4-1.3-0.6-2.3-0.6H119c-0.2,0-0.3,0.1-0.3,0.3v12.3
	c0,0.2,0.1,0.3,0.3,0.3h3.6c1.1,0,1.8-0.2,2.4-0.7c0.5-0.5,0.8-1.2,0.8-2v-1.8c0-0.4,0-0.7-0.1-0.9c-0.1-0.2-0.2-0.5-0.3-0.6
	c-0.1-0.2-0.3-0.3-0.5-0.4c-0.2-0.1-0.4-0.2-0.6-0.3V7.9z M131,5.8h0.1l0.7,4.9h-1.6L131,5.8z M134.5,14.9c0.2,0,0.2-0.1,0.2-0.3
	l-2.1-12.3c0-0.2-0.1-0.3-0.3-0.3h-2.5c-0.2,0-0.3,0.1-0.3,0.3l-2.3,12.3c0,0.2,0,0.3,0.2,0.3h1.8c0.2,0,0.3-0.1,0.3-0.3l0.3-1.8
	h2.2l0.3,1.8c0,0.2,0.1,0.3,0.3,0.3H134.5z M136.1,12.1c0,1,0.3,1.7,0.9,2.2c0.6,0.5,1.5,0.7,2.6,0.7c1.1,0,2-0.3,2.6-0.8
	c0.6-0.5,0.9-1.3,0.9-2.4v-0.8c0-0.3,0-0.6-0.1-0.9c0-0.3-0.1-0.5-0.2-0.7c-0.1-0.2-0.3-0.5-0.5-0.7s-0.5-0.5-0.8-0.7l-2.3-1.6
	c-0.3-0.2-0.5-0.4-0.6-0.6c-0.1-0.2-0.2-0.4-0.2-0.7c0-0.3,0.1-0.6,0.2-0.8c0.1-0.2,0.4-0.3,0.8-0.3c0.2,0,0.4,0,0.6,0.1
	c0.1,0.1,0.2,0.1,0.3,0.2c0.1,0.1,0.1,0.2,0.1,0.4c0,0.1,0,0.3,0,0.4v0.6c0,0.2,0.1,0.3,0.3,0.3h1.8c0.2,0,0.3-0.1,0.3-0.3v-1
	c0-0.6-0.1-1-0.3-1.4c-0.2-0.4-0.4-0.7-0.7-0.9c-0.3-0.2-0.7-0.4-1.1-0.5c-0.4-0.1-0.8-0.2-1.2-0.2c-1.3,0-2.2,0.3-2.7,0.8
	c-0.6,0.6-0.8,1.3-0.8,2.4c0,0.4,0,0.7,0.1,1c0.1,0.3,0.2,0.6,0.3,0.8c0.1,0.2,0.3,0.4,0.5,0.6c0.2,0.2,0.5,0.4,0.7,0.6l2.2,1.5
	c0.3,0.2,0.5,0.4,0.6,0.6c0.1,0.2,0.2,0.5,0.2,0.8v0.6c0,0.5-0.1,0.8-0.3,1c-0.2,0.2-0.5,0.3-0.8,0.3c-0.4,0-0.7-0.1-0.9-0.3
	c-0.2-0.2-0.3-0.5-0.3-1v-1.3c0-0.2-0.1-0.3-0.3-0.3h-1.8c-0.2,0-0.3,0.1-0.3,0.3V12.1z M147.2,14.9c0.2,0,0.3-0.1,0.3-0.3V2.3
	c0-0.2-0.1-0.3-0.3-0.3h-1.8c-0.2,0-0.3,0.1-0.3,0.3v12.3c0,0.2,0.1,0.3,0.3,0.3H147.2z M149.6,11.8c0,1,0.3,1.8,0.9,2.4
	c0.6,0.6,1.5,0.9,2.7,0.9c1.1,0,1.9-0.3,2.5-0.8c0.6-0.5,0.9-1.3,0.9-2.5v-1.5c0-0.2-0.1-0.3-0.3-0.3h-1.8c-0.2,0-0.3,0.1-0.3,0.3
	v1.4c0,0.3-0.1,0.6-0.2,0.8c-0.2,0.2-0.5,0.3-0.9,0.3c-0.4,0-0.7-0.1-0.9-0.3c-0.2-0.2-0.3-0.5-0.3-0.8V5.2c0-0.3,0.1-0.6,0.3-0.8
	c0.2-0.2,0.5-0.3,0.9-0.3c0.5,0,0.8,0.1,0.9,0.3c0.2,0.2,0.2,0.5,0.2,0.8v1.3c0,0.2,0.1,0.3,0.3,0.3h1.8c0.2,0,0.3-0.1,0.3-0.3V5
	c0-0.6-0.1-1-0.3-1.4c-0.2-0.4-0.4-0.7-0.8-1c-0.3-0.3-0.7-0.4-1.1-0.5c-0.4-0.1-0.9-0.2-1.3-0.2c-1.2,0-2.1,0.3-2.7,0.9
	c-0.6,0.6-0.9,1.4-0.9,2.4V11.8z M130.6,28.8c0,1,0.3,1.7,0.9,2.2c0.6,0.5,1.5,0.7,2.6,0.7c1.1,0,2-0.3,2.6-0.8
	c0.6-0.5,0.9-1.3,0.9-2.4v-0.8c0-0.3,0-0.6-0.1-0.9c0-0.3-0.1-0.5-0.2-0.7c-0.1-0.2-0.3-0.5-0.5-0.7c-0.2-0.2-0.5-0.5-0.8-0.7
	l-2.3-1.6c-0.3-0.2-0.5-0.4-0.6-0.6c-0.1-0.2-0.2-0.4-0.2-0.7c0-0.3,0.1-0.6,0.2-0.8c0.1-0.2,0.4-0.3,0.8-0.3c0.2,0,0.4,0,0.6,0.1
	c0.1,0.1,0.2,0.1,0.3,0.2c0.1,0.1,0.1,0.2,0.1,0.4c0,0.1,0,0.3,0,0.4v0.6c0,0.2,0.1,0.3,0.3,0.3h1.8c0.2,0,0.3-0.1,0.3-0.3v-1
	c0-0.6-0.1-1-0.3-1.4c-0.2-0.4-0.4-0.7-0.7-0.9c-0.3-0.2-0.7-0.4-1.1-0.5c-0.4-0.1-0.8-0.2-1.2-0.2c-1.3,0-2.2,0.3-2.7,0.8
	c-0.6,0.6-0.8,1.3-0.8,2.4c0,0.4,0,0.7,0.1,1c0.1,0.3,0.2,0.6,0.3,0.8c0.1,0.2,0.3,0.4,0.5,0.6c0.2,0.2,0.5,0.4,0.7,0.6l2.2,1.5
	c0.3,0.2,0.5,0.4,0.6,0.6c0.1,0.2,0.2,0.5,0.2,0.8v0.6c0,0.5-0.1,0.8-0.3,1c-0.2,0.2-0.5,0.3-0.8,0.3c-0.4,0-0.7-0.1-0.9-0.3
	c-0.2-0.2-0.3-0.5-0.3-1V27c0-0.2-0.1-0.3-0.3-0.3h-1.8c-0.2,0-0.3,0.1-0.3,0.3V28.8z M141.7,31.5c0.2,0,0.3-0.1,0.3-0.3V19
	c0-0.2-0.1-0.3-0.3-0.3h-1.8c-0.2,0-0.3,0.1-0.3,0.3v12.3c0,0.2,0.1,0.3,0.3,0.3H141.7z M152.5,22.5h0.1v8.8c0,0.2,0.1,0.3,0.3,0.3
	h1.8c0.2,0,0.3-0.1,0.3-0.3V19c0-0.2-0.1-0.3-0.3-0.3h-3.3c-0.2,0-0.3,0.1-0.3,0.3l-1.4,8.2h-0.1l-1.4-8.2c0-0.2-0.1-0.3-0.3-0.3
	h-3.3c-0.2,0-0.3,0.1-0.3,0.3v12.3c0,0.2,0.1,0.3,0.3,0.3h1.8c0.2,0,0.3-0.1,0.3-0.3v-8.8h0.1l1.8,8.8c0,0.2,0.1,0.3,0.3,0.3h1.7
	c0.2,0,0.3-0.1,0.3-0.3L152.5,22.5z M161.8,22.9c0,0.4-0.1,0.8-0.3,0.9c-0.2,0.2-0.5,0.3-0.9,0.3h-1v-3.3h1c0.4,0,0.7,0.1,0.9,0.3
	c0.2,0.2,0.3,0.5,0.3,0.9V22.9z M164.2,21.5c0-0.9-0.2-1.6-0.7-2.1c-0.5-0.5-1.3-0.7-2.3-0.7h-3.6c-0.2,0-0.3,0.1-0.3,0.3v12.3
	c0,0.2,0.1,0.3,0.3,0.3h1.8c0.2,0,0.3-0.1,0.3-0.3v-5.1h1.5c1.1,0,1.8-0.2,2.3-0.7c0.5-0.5,0.7-1.2,0.7-2.1V21.5z M171.6,31.5
	c0.2,0,0.3-0.1,0.3-0.3v-1.5c0-0.2-0.1-0.3-0.3-0.3h-3.2V19c0-0.2-0.1-0.3-0.3-0.3h-1.8c-0.2,0-0.3,0.1-0.3,0.3v12.3
	c0,0.2,0.1,0.3,0.3,0.3H171.6z M179.5,31.5c0.2,0,0.3-0.1,0.3-0.3v-1.5c0-0.2-0.1-0.3-0.3-0.3h-3.8v-3.7h3.4c0.2,0,0.3-0.1,0.3-0.3
	v-1.5c0-0.2-0.1-0.3-0.3-0.3h-3.4v-2.9h3.6c0.2,0,0.3-0.1,0.3-0.3V19c0-0.2-0.1-0.3-0.3-0.3h-5.7c-0.2,0-0.3,0.1-0.3,0.3v12.3
	c0,0.2,0.1,0.3,0.3,0.3H179.5z M122.9,21.5c0,0.4-0.2,0.8-0.9,1.7c-0.6-1.1-0.8-1.4-0.8-1.7c0-0.6,0.3-0.9,0.8-0.9
	C122.6,20.6,122.9,20.9,122.9,21.5 M121.5,29.6c-0.6,0-1-0.4-1-1c0-0.6,0.3-1.2,1.1-2.1l1.4,2.2C122.5,29.4,122,29.6,121.5,29.6
	 M120.5,24.7c-1.4,1.6-2.1,2.7-2.1,4c0,1.8,1.2,3,3,3c1.1,0,2-0.3,2.8-1.2l0.2,0.3c0.4,0.6,0.7,0.8,1.5,0.8h0.7
	c0.1,0,0.2-0.1,0.2-0.2v-1.6c0-0.1-0.1-0.2-0.2-0.2h-0.1c-0.3,0-0.4-0.1-0.6-0.4l-0.4-0.6l1.3-2c0.1-0.1,0-0.2-0.1-0.3l-1.3-0.8
	c-0.1-0.1-0.2,0-0.3,0.1l-0.8,1.3l-1.1-1.8c1.5-1.7,1.9-2.6,1.9-3.6c0-1.7-1.2-2.8-3-2.8s-3,1.1-3,2.8c0,1,0.4,1.9,1.2,3.1
	L120.5,24.7 M21.9,29l2.3-2.3l-2.3-2.3l-2.3,2.3L21.9,29z M14.7,21.9l2.3,2.3l2.3-2.3L17,19.6L14.7,21.9z M19.6,17l2.3,2.3l2.3-2.3
	l-2.3-2.3L19.6,17z M26.8,19.6l-2.3,2.3l2.3,2.3l2.3-2.3L26.8,19.6z M43.6,11.8c0.2,0.2,0.2,0.5,0,0.7L22.9,33.2
	c-0.5,0.5-1.4,0.5-2,0L0.1,12.5C0,12.3,0,12,0.1,11.8l1.9-1.9c0.2-0.2,0.5-0.2,0.7,0l9.4,9.4l2.3-2.3L5,7.6C4.8,7.4,4.8,7.1,5,6.9
	L6.9,5c0.2-0.2,0.5-0.2,0.7,0l9.4,9.4l2.3-2.3L9.9,2.7c-0.2-0.2-0.2-0.5,0-0.7l1.9-1.9C12,0,12.3,0,12.5,0.1l9.4,9.4l9.4-9.4
	C31.5,0,31.8,0,32,0.1l1.9,1.9c0.2,0.2,0.2,0.5,0,0.7l-9.4,9.4l2.3,2.3L36.2,5c0.2-0.2,0.5-0.2,0.7,0l1.9,1.9c0.2,0.2,0.2,0.5,0,0.7
	L29.3,17l2.3,2.3L41,9.9c0.2-0.2,0.5-0.2,0.7,0L43.6,11.8"/>
</svg>
