<?xml version="1.0" encoding="utf-8"?>
<!-- Generator: Adobe Illustrator 23.0.3, SVG Export Plug-In . SVG Version: 6.00 Build 0)  -->
<svg version="1.1" id="Capa_1" xmlns="http://www.w3.org/2000/svg" xmlns:xlink="http://www.w3.org/1999/xlink" x="0px" y="0px"
	 viewBox="0 0 909 308" style="enable-background:new 0 0 909 308;" xml:space="preserve">
<style type="text/css">
	.st0{fill:#FFFFFF;stroke:#B1B1B1;stroke-width:10;stroke-miterlimit:10;}
	.st1{fill:#F08700;}
	.st2{fill:url(#SVGID_1_);}
	.st3{fill:url(#SVGID_2_);}
	.st4{fill:url(#SVGID_3_);}
	.st5{fill:#B1B1B1;}
	.st6{fill:#FFFFFF;}
</style>
<g>
	<g>
		<g>
			<g>
				<path class="st0" d="M893.2,103c0-70.5,0-55.9,0-56c0-20.4-17.3-37-37.8-37c-0.7,0-810.9,0-810.9,0C26,10,9.9,26.3,10,44.5v58.6
					H9.9v29.5v20.6c-0.1,17.3,14.7,49,66.7,58.8h0.1h0.1c0,0,653.9,80.3,697.7,80.3c65,0,118.6-52.8,118.6-117.8v-42V103H893.2z"/>
			</g>
		</g>
	</g>
</g>
<path class="st1" d="M777.1,267.1c52.7,0,95.3-42.7,95.3-95.3v-42.3H33.3v23.7c0,0,0,31.3,47.4,36.6
	C80.7,189.8,732.9,267.1,777.1,267.1z"/>
<linearGradient id="SVGID_1_" gradientUnits="userSpaceOnUse" x1="367.1068" y1="111.2524" x2="442.218" y2="-26.8443" gradientTransform="matrix(1 0 0 -1 0 259.811)">
	<stop  offset="0.2515" style="stop-color:#F08700"/>
	<stop  offset="0.4476" style="stop-color:#F08904"/>
	<stop  offset="0.6272" style="stop-color:#F2900F"/>
	<stop  offset="0.7998" style="stop-color:#F49C21"/>
	<stop  offset="0.9202" style="stop-color:#F6A733"/>
</linearGradient>
<path class="st2" d="M80.7,189.8c0,0,203,23.2,388.6,45.1c0.1,0,226.9-105.5,226.9-105.5H33.4l-0.1,23.7
	C33.3,153.2,33.3,184.5,80.7,189.8z"/>
<linearGradient id="SVGID_2_" gradientUnits="userSpaceOnUse" x1="454.9437" y1="93.4514" x2="468.4577" y2="-67.6611" gradientTransform="matrix(1 0 0 -1 0 259.811)">
	<stop  offset="7.975460e-02" style="stop-color:#E95A0C;stop-opacity:0"/>
	<stop  offset="0.5399" style="stop-color:#E95A0C"/>
</linearGradient>
<path class="st3" d="M33.3,129.5v23.7c0,0,0,31.3,47.4,36.6c0,0,652.2,77.2,696.4,77.2c52.7,0,95.3-42.7,95.3-95.3v-42.3L33.3,129.5
	L33.3,129.5z"/>
<linearGradient id="SVGID_3_" gradientUnits="userSpaceOnUse" x1="822.4055" y1="174.5055" x2="822.4055" y2="174.5055" gradientTransform="matrix(1 0 0 -1 0 259.811)">
	<stop  offset="0" style="stop-color:#FFFFFF"/>
	<stop  offset="0.4874" style="stop-color:#FFFFFF;stop-opacity:0"/>
</linearGradient>
<path class="st4" d="M822.4,85.3"/>
<g>
	<path class="st5" d="M129.2,111.9h-22.7l10.1-49.2l-23.9,49.2H69.9L66.2,62L56,111.9H33.4l16.1-78.5h32.6l4.6,52.3l26-52.3h32.7
		L129.2,111.9z"/>
	<path class="st5" d="M215.2,80.6c-1.3,6.3-2.5,10.9-3.7,13.6c-3.6,8.8-9.7,14.4-18.4,16.8c-4.1,1.2-9.2,1.7-15.5,1.7h-10.4
		c-11.9,0-19.6-2.7-23.1-8c-2.2-3.1-3.2-6.9-3.2-11.3c0.1-2.8,0.7-7.1,1.9-12.9l9.7-47.2h23.1l-9.3,45.6c-1.1,5.3-1.3,8.8-0.5,10.5
		c1.1,2.2,4,3.3,8.8,3.3h3.9c4.8,0,8.2-1.1,10.1-3.3c1.4-1.7,2.7-5.1,3.8-10.5l9.3-45.6h23.2L215.2,80.6z"/>
	<path class="st5" d="M275.2,111.9h-58.5l16.1-78.5h23.4l-12,58.6h35.1L275.2,111.9z"/>
	<path class="st5" d="M338.1,52.5H318l-12.1,59.4h-23.4l12.2-59.4h-20.2l3.9-19.1h63.7L338.1,52.5z"/>
	<path class="st5" d="M358.6,111.9h-23.4l16.1-78.5h23.4L358.6,111.9z"/>
	<path class="st5" d="M475.8,111.9h-24.9l-0.8-13.4h-23l-6.3,13.4h-24.9l39.3-78.5h34.1L475.8,111.9z M449.4,80.9l-1.2-29.6
		l-13.1,29.6H449.4z"/>
	<path class="st5" d="M552,111.9h-23.2l6.1-29.9h-25.3l-6.1,29.9h-23.2l16.1-78.5h23.2l-5.8,28.5h25.3l5.8-28.5h23.2L552,111.9z"/>
	<path class="st5" d="M639.6,80.6c-2.4,11.7-6.4,20-12,24.9s-14.2,7.3-25.8,7.3h-10.4c-11.7,0-19.3-2.5-22.9-7.5
		c-3.5-4.8-4-13-1.6-24.8l3.3-16c2.4-11.7,6.4-20,12-24.9s14.1-7.3,25.7-7.3h10.4c11.7,0,19.3,2.4,22.9,7.3
		c3.6,4.9,4.2,13.2,1.8,24.9L639.6,80.6z M616.3,78.9l2.6-12.6c1.2-5.7,1.4-9.3,0.6-10.9c-1-1.9-3.8-2.9-8.6-2.9H607
		c-4.8,0-8.2,1.1-10,3.3c-1.3,1.6-2.4,5.1-3.6,10.5l-2.5,12.6c-1.2,5.6-1.3,9.2-0.6,10.8c1,1.9,3.8,2.9,8.5,2.9h3.9
		c4.9,0,8.2-1.1,10-3.3C614,87.8,615.2,84.3,616.3,78.9z"/>
	<path class="st5" d="M707.2,111.9h-23.6l3-14.8c0.6-2.9,0.4-4.9-0.6-5.9c-1-1.1-2.9-1.6-5.9-1.6h-10.6l-4.6,22.4h-23.2l16.1-78.5
		h32.7c10.7,0,18,1,22,3.1c6,3.2,8.1,9.4,6.2,18.8l-1.3,6.3c-1.9,9.2-6.9,15-15,17.4c7.2,2.3,9.9,7.7,8.2,16.1L707.2,111.9z
		 M693.6,62.9l0.6-2.9c0.6-3,0.4-4.9-0.5-5.9s-2.9-1.5-5.9-1.5h-10.6l-3.6,17.7h10.6c2.9,0,5.1-0.5,6.5-1.5
		C692,67.7,693,65.7,693.6,62.9z"/>
	<path class="st5" d="M781.9,111.9h-23.6l3-14.8c0.6-2.9,0.4-4.9-0.6-5.9c-1-1.1-2.9-1.6-5.9-1.6h-10.6l-4.6,22.4h-23.2l16.1-78.5
		h32.7c10.7,0,18,1,22,3.1c6,3.2,8.1,9.4,6.2,18.8l-1.3,6.3c-1.9,9.2-6.9,15-15,17.4c7.2,2.3,9.9,7.7,8.2,16.1L781.9,111.9z
		 M768.3,62.9l0.6-2.9c0.6-3,0.4-4.9-0.5-5.9s-2.9-1.5-5.9-1.5h-10.6l-3.6,17.7h10.6c2.9,0,5.1-0.5,6.5-1.5
		C766.7,67.7,767.7,65.7,768.3,62.9z"/>
	<path class="st5" d="M867.8,80.6c-2.4,11.7-6.4,20-12,24.9s-14.2,7.3-25.8,7.3h-10.4c-11.7,0-19.3-2.5-22.9-7.5
		c-3.5-4.8-4-13-1.6-24.8l3.3-16c2.4-11.7,6.4-20,12-24.9s14.1-7.3,25.7-7.3h10.4c11.7,0,19.3,2.4,22.9,7.3
		c3.6,4.9,4.2,13.2,1.8,24.9L867.8,80.6z M844.5,78.9l2.6-12.6c1.2-5.7,1.4-9.3,0.6-10.9c-1-1.9-3.8-2.9-8.6-2.9h-3.9
		c-4.8,0-8.1,1.1-10,3.3c-1.3,1.6-2.4,5.1-3.5,10.5l-2.6,12.6c-1.2,5.6-1.4,9.2-0.6,10.8c1,1.9,3.8,2.9,8.5,2.9h3.9
		c4.9,0,8.2-1.1,10-3.3C842.2,87.8,843.4,84.3,844.5,78.9z"/>
</g>
<g>
	<path class="st6" d="M596.8,209.6l10.1-49.3h13.2l-3.8,18.4h17.2l3.8-18.4h13.2l-10.1,49.3h-13.2l3.9-19.3h-17.2l-3.9,19.3H596.8z"
		/>
	<path class="st6" d="M654.9,179.8c1.5-7.5,4-12.7,7.4-15.7s8.6-4.5,15.6-4.5h6.5c7,0,11.6,1.5,13.8,4.5s2.5,8.2,1,15.7l-2.1,10.2
		c-1.5,7.5-4,12.7-7.4,15.7s-8.6,4.5-15.6,4.5h-6.5c-7,0-11.6-1.5-13.7-4.5c-2.2-3-2.5-8.2-1-15.7L654.9,179.8z M668.2,180.9
		l-1.7,8.1c-0.9,4.2-0.9,6.9-0.2,7.9c0.7,1.1,2.6,1.6,5.6,1.6h2.4c3,0,5.1-0.6,6.3-1.7s2.2-3.7,3.1-7.9l1.7-8.1
		c0.9-4.2,0.9-6.9,0.2-8s-2.6-1.7-5.6-1.7h-2.4c-3,0-5.1,0.6-6.3,1.7C670.1,174.1,669,176.7,668.2,180.9z"/>
	<path class="st6" d="M751,175.7h-13.2c0.3-1.5-0.1-2.7-1-3.4c-1-0.7-2.7-1-5.1-1h-3.3c-3,0-5.1,0.6-6.3,1.7s-2.2,3.8-3.1,8
		l-1.7,8.1c-0.9,4.2-0.9,6.8-0.2,7.9s2.6,1.7,5.7,1.7h3.7c2.6,0,4.5-0.4,5.7-1.1s2-2,2.3-3.8l0.4-1.9h-7.5l1.9-9.2h20.4l-1.7,8.4
		c-1.4,6.7-3.8,11.5-7.4,14.6c-3.6,3.1-8.5,4.6-14.8,4.6h-9c-5.6,0-9.4-1.8-11.6-5.3c-2.1-3.5-2.5-8.7-1.1-15.6l1.5-7.5
		c1.6-7.7,4.2-13.3,8-16.8c3.7-3.5,8.9-5.3,15.4-5.3h7.2c5.3,0,9.4,1.3,12.2,4c2.8,2.6,3.9,6,3,10L751,175.7z"/>
	<path class="st6" d="M747.4,209.6l24.3-49.3H792l3.7,49.3h-14.2L781,201h-15.5l-4,8.6H747.4z M770,191h10.8l-0.7-20.4h-0.9L770,191
		z"/>
	<path class="st6" d="M801.8,209.6l10.1-49.3h19.9c7.6,0,12.6,1,15,3s3.1,5.5,2.1,10.5l-0.8,4c-0.7,3.3-2,5.9-4,7.8s-4.6,3-7.9,3.4
		c3.2,0.6,5.4,1.7,6.6,3.3c1.2,1.7,1.5,4,0.8,7.1l-2.1,10.2H828l1.8-8.9c0.4-2.1,0.3-3.5-0.3-4.3s-2.1-1.2-4.2-1.2H818l-2.9,14.4
		H801.8z M820.3,184.1h7.4c2.2,0,3.8-0.4,4.7-1.2c1-0.8,1.6-2.2,2.1-4.3l0.4-1.9c0.4-2.1,0.3-3.5-0.3-4.3s-2.1-1.2-4.2-1.2h-7.5
		L820.3,184.1z"/>
</g>
</svg>
